# AST/ASF file generated using VICON BodyLanguage
# -----------------------------------------------
:version 1.10
:name VICON
:units
  mass 1.0
  length 0.45
  angle deg
:documentation
   .ast/.asf automatically generated from VICON data using
   VICON BodyBuilder and BodyLanguage model FoxedUp or BRILLIANT.MOD
:root
   order TX TY TZ RX RY RZ
   axis XYZ
   position 0 0 0  
   orientation 0 0 0 
:bonedata
  begin
     id 1 
     name lhipjoint
     direction 0.577973 -0.728611 0.367523 
     length 2.48544 
     axis 0 0 0  XYZ
  end
  begin
     id 2 
     name lfemur
     direction 0.34202 -0.939693 0  
     length 7.1921  
     axis 0 0 20  XYZ
    dof rx ry rz
    limits (-160.0 20.0)
           (-70.0 70.0)
           (-60.0 70.0)
  end
  begin
     id 3 
     name ltibia
     direction 0.34202 -0.939693 0   
     length 7.71059   
     axis 0 0 20   XYZ
    dof rx
    limits (-10.0 170.0)
  end
  begin
     id 4 
     name lfoot
     direction 0.089538 -0.246004 0.965124   
     length 2.19909   
     axis -90 7.62852e-016 20   XYZ
    dof rx rz
    limits (-45.0 90.0)
           (-70.0 20.0)
  end
  begin
     id 5 
     name ltoes
     direction 1.53544e-011 -4.21829e-011 1   
     length 1.10116   
     axis -90 7.62852e-016 20   XYZ
    dof rx
    limits (-90.0 20.0)
  end
  begin
     id 6 
     name rhipjoint
     direction -0.554414 -0.743062 0.374812   
     length 2.4371  
     axis 0 0 0  XYZ 
  end
  begin
     id 7 
     name rfemur
     direction -0.34202 -0.939693 0   
     length 7.47254   
     axis 0 0 -20   XYZ
    dof rx ry rz
    limits (-160.0 20.0)
           (-70.0 70.0)
           (-70.0 60.0)
  end
  begin
     id 8 
     name rtibia
     direction -0.34202 -0.939693 0   
     length 7.65855   
     axis 0 0 -20   XYZ
    dof rx
    limits (-10.0 170.0)
 end
 begin
     id 9 
     name rfoot
     direction -0.133779 -0.367555 0.92033   
     length 2.43006  
     axis -90 -7.62852e-016 -20   XYZ
    dof rx rz
    limits (-45.0 90.0)
           (-20.0 70.0)
  end
  begin
     id 10 
     name rtoes
     direction -1.53563e-011 -4.21889e-011 1   
     length 1.19625   
     axis -90 -7.62852e-016 -20   XYZ
    dof rx
    limits (-90.0 20.0)
  end
  begin
     id 11 
     name lowerback
     direction 0.0249066 0.998043 -0.0573585   
     length 2.08485   
     axis 0 0 0   XYZ
    dof rx ry rz
    limits (-20.0 45.0)
           (-30.0 30.0)
           (-30.0 30.0)
  end
  begin
     id 12 
     name upperback
     direction 0.0237884 0.999673 0.00943178   
     length 2.08515   
     axis 0 0 0   XYZ
    dof rx ry rz
    limits (-20.0 45.0)
           (-30.0 30.0)
           (-30.0 30.0)
  end
  begin
     id 13 
     name thorax
     direction 0.0106671 0.999301 0.0358174   
     length 2.09037   
     axis 0 0 0   XYZ
    dof rx ry rz
    limits (-20.0 45.0)
           (-30.0 30.0)
           (-30.0 30.0)
  end
  begin
     id 14 
     name lowerneck
     direction -0.0580016 0.987052 0.149546   
     length 1.84454   
     axis 0 0 0   XYZ
    dof rx ry rz
    limits (-20.0 45.0)
           (-30.0 30.0)
           (-30.0 30.0)
  end
  begin
     id 15 
     name upperneck
     direction 0.079456 0.981963 -0.171567   
     length 1.88141   
     axis 0 0 0   XYZ
    dof rx ry rz
    limits (-20.0 45.0)
           (-30.0 30.0)
           (-30.0 30.0)
  end
  begin
     id 16
     name head
     direction 0.0262167 0.9967 -0.0768276  
     length 1.89541  
     axis 0 0 0   XYZ
    dof rx ry rz
    limits (-20.0 45.0)
           (-30.0 30.0)
           (-30.0 30.0)
  end
  begin
     id 17 
     name lclavicle
     direction 0.946135 0.322134 -0.0325326  
     length 3.949  
     axis 0 0 0   XYZ
    dof ry rz
    limits (-20.0 10.0)
           (0.0 20.0)
  end
  begin
     id 18 
     name lhumerus
     direction 1 -4.48964e-011 1.94005e-028   
     length 5.10995   
     axis 180 -30 -90   XYZ
    dof rx ry rz
    limits (-60.0 90.0)
           (-90.0 90.0)
           (-90.0 90.0)
  end
  begin
     id 19
     name lradius
     direction 1 -4.48976e-011 2.87852e-027   
     length 3.21207   
     axis 180 -30 -90   XYZ
    dof rx
    limits (-10.0 170.0)
  end
  begin
     id 20
     name lwrist
     direction 1 -4.48963e-011 1.9975e-027   
     length 1.60604   
     axis 2.96054e-016 90 90   XYZ
    dof ry
    limits (-180.0 0.0)
 end
  begin
     id 21 
     name lhand
     direction 1 -4.48919e-011 4.00227e-027   
     length 0.63349   
     axis -2.5488e-015 90 90   XYZ
    dof rx rz
    limits (-90.0 90.0)
           (-45.0 45.0)
  end
  begin
     id 22 
     name lfingers
     direction 1 -4.49037e-011 7.9652e-027   
     length 0.510736   
     axis -5.0975e-015 90 90   XYZ
    dof rx
    limits (0.0 90.0)
  end
  begin
     id 23
     name lthumb
     direction 0.707107 -6.34922e-011 0.707107   
     length 0.733318   
     axis -90 45 -4.48553e-014   XYZ
    dof rx rz
    limits (-45.0 45.0)
           (-45.0 45.0)
  end
  begin
     id 24 
     name rclavicle
     direction -0.940085 0.328911 -0.0897654   
     length 3.93848  
     axis 0 0 0   XYZ 
    dof ry rz
    limits (-10.0 20.0)
           (-20.0 0.0)
  end
  begin
     id 25 
     name rhumerus
     direction -1 -4.48958e-011 3.02044e-027  
     length 5.25109   
     axis 180 30 90   XYZ
    dof rx ry rz
    limits (-90.0 60.0)
           (-90.0 90.0)
           (-90.0 90.0)
  end
  begin
     id 26 
     name rradius
     direction -1 -4.4897e-011 9.78352e-028   
     length 3.28364   
     axis 180 30 90   XYZ
    dof rx
    limits (-10.0 170.0)
  end
  begin
     id 27 
     name rwrist
     direction -1 -4.48943e-011 1.99918e-027   
     length 1.64182   
     axis 2.96054e-016 -90 -90   XYZ
    dof ry
    limits (-180.0 0.0)
  end
  begin
     id 28
     name rhand
     direction -1 -4.49024e-011 3.98478e-027   
     length 0.599745   
     axis -2.5488e-015 -90 -90   XYZ
    dof rx rz
    limits (-90.0 90.0)
           (-45.0 45.0)
  end
  begin
     id 29
     name rfingers
     direction -1 -4.48914e-011 8.00621e-027   
     length 0.48353   
     axis -5.0975e-015 -90 -90   XYZ
    dof rx
    limits (0.0 90.0)
  end
  begin
     id 30
     name rthumb
     direction -0.707107 -6.34992e-011 0.707107   
     length 0.694255   
     axis -90 -45 4.48553e-014   XYZ
    dof rx rz
    limits (-45.0 45.0)
           (-45.0 45.0)
  end
:hierarchy
  begin
    root lhipjoint rhipjoint lowerback
    lhipjoint lfemur
    lfemur ltibia
    ltibia lfoot
    lfoot ltoes
    rhipjoint rfemur
    rfemur rtibia
    rtibia rfoot
    rfoot rtoes
    lowerback upperback
    upperback thorax
    thorax lowerneck lclavicle rclavicle
    lowerneck upperneck
    upperneck head
    lclavicle lhumerus
    lhumerus lradius
    lradius lwrist
    lwrist lhand lthumb
    lhand lfingers
    rclavicle rhumerus
    rhumerus rradius
    rradius rwrist
    rwrist rhand rthumb
    rhand rfingers
  end

#!OML:ASF E:\CV Data\Top Level 1\Subject 1\Session 1\player.ASF
:FULLY-SPECIFIED
:DEGREES
407
root 0.190137 17.3072 -1.9385 5.04726 -18.8527 -1.69799
lowerback 10.8897 0.741432 3.59139
upperback 0.994561 1.58535 3.48079
thorax -5.07422 0.730695 1.38091
lowerneck -18.079 -3.25311 -7.73872
upperneck 7.69282 -3.70983 9.46313
head 5.58589 -1.3473 3.90311
rclavicle 4.01545e-014 -7.15625e-015
rhumerus -20.7227 52.0514 -93.6652
rradius 72.0916
rwrist -2.46064
rhand -29.1614 13.5986
rfingers 7.12502
rthumb -2.50758 -16.3665
lclavicle 4.01545e-014 -7.15625e-015
lhumerus -31.4672 -30.6907 106.533
lradius 80.7788
lwrist 17.3347
lhand -29.0577 34.2374
lfingers 7.12502
lthumb -2.40744 64.2035
rfemur -19.5717 -1.16105 19.8131
rtibia 45.4721
rfoot -23.0927 -13.8449
rtoes -2.57403
lfemur -20.2682 2.47861 -12.1453
ltibia 53.7025
lfoot -13.8951 -2.87043
ltoes -10.5013
408
root 0.227089 17.3109 -1.98025 5.01985 -19.2489 -1.62208
lowerback 10.6473 0.638598 3.40652
upperback 0.908889 1.41634 3.46052
thorax -5.0327 0.651773 1.49097
lowerneck -18.0339 -3.01702 -7.63841
upperneck 7.91295 -3.4222 9.38123
head 5.61853 -1.20965 3.89207
rclavicle 3.18055e-014 2.3059e-014
rhumerus -20.6952 51.7947 -93.5989
rradius 71.9099
rwrist -2.19467
rhand -29.7138 13.8157
rfingers 7.12502
rthumb -3.04108 -16.1424
lclavicle 3.18055e-014 2.3059e-014
lhumerus -31.2321 -30.9094 106.609
lradius 80.5181
lwrist 17.0702
lhand -29.2174 34.3145
lfingers 7.12502
lthumb -2.56163 64.2788
rfemur -19.82 -0.975294 19.6384
rtibia 45.4743
rfoot -22.9316 -13.6764
rtoes -2.46792
lfemur -19.1069 2.39395 -12.3172
ltibia 53.1811
lfoot -14.1569 -3.34752
ltoes -10.5663
409
root 0.265645 17.3138 -2.02183 4.99341 -19.6495 -1.54449
lowerback 10.4083 0.542228 3.22961
upperback 0.825438 1.25744 3.43566
thorax -4.98938 0.577574 1.58944
lowerneck -17.9912 -2.78878 -7.54871
upperneck 8.12725 -3.14271 9.30707
head 5.65127 -1.07575 3.8843
rclavicle -1.88845e-014 -5.56597e-015
rhumerus -20.6646 51.5106 -93.5452
rradius 71.6907
rwrist -1.82936
rhand -30.3416 14.047
rfingers 7.12502
rthumb -3.64732 -15.9015
lclavicle -1.88845e-014 -5.56597e-015
lhumerus -30.9788 -31.1903 106.686
lradius 80.234
lwrist 16.9966
lhand -29.4636 34.3502
lfingers 7.12502
lthumb -2.79944 64.3116
rfemur -20.0775 -0.806696 19.4547
rtibia 45.4857
rfoot -22.7819 -13.4808
rtoes -2.36155
lfemur -17.9354 2.28835 -12.5156
ltibia 52.5363
lfoot -14.4288 -3.86889
ltoes -10.6548
410
root 0.306021 17.3156 -2.06339 4.97415 -20.0484 -1.47001
lowerback 10.1711 0.450147 3.06562
upperback 0.74385 1.10631 3.4087
thorax -4.94383 0.506868 1.67657
lowerneck -17.9624 -2.56797 -7.45342
upperneck 8.34282 -2.87156 9.21926
head 5.68748 -0.946462 3.87024
rclavicle 3.10104e-014 -3.26007e-014
rhumerus -20.6276 51.1973 -93.5021
rradius 71.4383
rwrist -1.44577
rhand -30.9764 14.2592
rfingers 7.12502
rthumb -4.2603 -15.6779
lclavicle 3.10104e-014 -3.26007e-014
lhumerus -30.7163 -31.5227 106.77
lradius 79.931
lwrist 17.0467
lhand -29.793 34.3528
lfingers 7.12502
lthumb -3.11755 64.3098
rfemur -20.3505 -0.659458 19.2663
rtibia 45.5072
rfoot -22.6419 -13.2576
rtoes -2.25426
lfemur -16.7655 2.15451 -12.7383
ltibia 51.7668
lfoot -14.7105 -4.42398
ltoes -10.8107
411
root 0.348475 17.3163 -2.10473 4.96128 -20.4473 -1.39353
lowerback 9.9317 0.361866 2.9125
upperback 0.659625 0.961978 3.37837
thorax -4.89876 0.439184 1.7524
lowerneck -17.9246 -2.35264 -7.359
upperneck 8.55661 -2.60656 9.12347
head 5.72255 -0.821085 3.853
rclavicle -7.71285e-014 2.70347e-014
rhumerus -20.6059 50.8573 -93.4859
rradius 71.1692
rwrist -1.15186
rhand -31.5579 14.4095
rfingers 7.12502
rthumb -4.82184 -15.5157
lclavicle -7.71285e-014 2.70347e-014
lhumerus -30.4436 -31.8872 106.86
lradius 79.5889
lwrist 17.1505
lhand -30.1496 34.3452
lfingers 7.12502
lthumb -3.46191 64.2968
rfemur -20.6438 -0.5337 19.066
rtibia 45.5436
rfoot -22.5104 -13.0041
rtoes -2.14959
lfemur -15.5995 1.98979 -12.9947
ltibia 50.8751
lfoot -14.9977 -4.98816
ltoes -11.0111
412
root 0.393058 17.3157 -2.14653 4.9621 -20.8287 -1.31182
lowerback 9.69002 0.273482 2.76404
upperback 0.569871 0.818785 3.3468
thorax -4.85738 0.371882 1.82347
lowerneck -17.8972 -2.14329 -7.26665
upperneck 8.78251 -2.34806 9.02255
head 5.76416 -0.699078 3.83389
rclavicle 6.12257e-014 1.11319e-014
rhumerus -20.584 50.4875 -93.4877
rradius 70.8832
rwrist -1.02978
rhand -32.0562 14.468
rfingers 7.12502
rthumb -5.30302 -15.4456
lclavicle 6.12257e-014 1.11319e-014
lhumerus -30.166 -32.2803 106.964
lradius 79.2061
lwrist 17.2505
lhand -30.5399 34.3247
lfingers 7.12502
lthumb -3.83882 64.2699
rfemur -20.97 -0.440496 18.8537
rtibia 45.6001
rfoot -22.3882 -12.7291
rtoes -2.04014
lfemur -14.4581 1.78408 -13.2857
ltibia 49.8669
lfoot -15.2723 -5.54432
ltoes -11.2553
413
root 0.439647 17.3138 -2.18965 4.97527 -21.1823 -1.22039
lowerback 9.45581 0.181732 2.60928
upperback 0.472069 0.671815 3.31441
thorax -4.82786 0.302761 1.89711
lowerneck -17.8815 -1.93918 -7.17284
upperneck 9.02718 -2.09648 8.9183
head 5.81465 -0.580349 3.813
rclavicle -1.35174e-014 -7.15625e-015
rhumerus -20.5789 50.0851 -93.5117
rradius 70.6076
rwrist -1.18363
rhand -32.4437 14.4599
rfingers 7.12502
rthumb -5.67708 -15.444
lclavicle -1.35174e-014 -7.15625e-015
lhumerus -29.88 -32.6931 107.08
lradius 78.7573
lwrist 17.2723
lhand -30.9278 34.298
lfingers 7.12502
lthumb -4.21341 64.236
rfemur -21.333 -0.380851 18.6287
rtibia 45.6808
rfoot -22.2736 -12.4442
rtoes -1.92853
lfemur -13.3518 1.53417 -13.6125
ltibia 48.7497
lfoot -15.5136 -6.071
ltoes -11.5393
414
root 0.488206 17.3103 -2.23429 4.99938 -21.507 -1.12024
lowerback 9.23679 0.0871398 2.4418
upperback 0.366088 0.521667 3.28676
thorax -4.81476 0.232336 1.98274
lowerneck -17.8737 -1.73861 -7.07712
upperneck 9.27028 -1.84768 8.80402
head 5.86659 -0.463654 3.78832
rclavicle -3.53837e-014 -1.51076e-014
rhumerus -20.6074 49.6583 -93.5524
rradius 70.3645
rwrist -1.65222
rhand -32.7414 14.3775
rfingers 7.12502
rthumb -5.96451 -15.5185
lclavicle -3.53837e-014 -1.51076e-014
lhumerus -29.5899 -33.1075 107.211
lradius 78.2529
lwrist 17.1841
lhand -31.2755 34.2974
lfingers 7.12502
lthumb -4.54917 64.2285
rfemur -21.7323 -0.350738 18.3933
rtibia 45.7877
rfoot -22.1644 -12.1576
rtoes -1.81582
lfemur -12.2839 1.23905 -13.9726
ltibia 47.5316
lfoot -15.7015 -6.53712
ltoes -11.8919
415
root 0.538717 17.3055 -2.28031 5.03012 -21.8051 -1.01298
lowerback 9.02754 -0.00703866 2.26929
upperback 0.258137 0.372611 3.25813
thorax -4.80836 0.162585 2.0695
lowerneck -17.8668 -1.5437 -6.96375
upperneck 9.49923 -1.60729 8.67426
head 5.91518 -0.351797 3.75472
rclavicle -7.7526e-015 -1.82882e-014
rhumerus -20.6601 49.1933 -93.6027
rradius 70.1586
rwrist -2.42299
rhand -32.9768 14.2388
rfingers 7.12502
rthumb -6.19186 -15.6507
lclavicle -7.7526e-015 -1.82882e-014
lhumerus -29.2972 -33.5325 107.353
lradius 77.6938
lwrist 16.9835
lhand -31.5466 34.3438
lfingers 7.12502
lthumb -4.81093 64.2692
rfemur -22.1628 -0.349809 18.1491
rtibia 45.92
rfoot -22.0582 -11.8689
rtoes -1.70746
lfemur -11.2512 0.902127 -14.3633
ltibia 46.2232
lfoot -15.836 -6.90102
ltoes -12.404
416
root 0.591091 17.2993 -2.32735 5.06091 -22.0921 -0.905923
lowerback 8.82589 -0.095979 2.0947
upperback 0.158047 0.230923 3.2316
thorax -4.79732 0.0965992 2.15807
lowerneck -17.863 -1.35809 -6.84585
upperneck 9.71363 -1.37825 8.53865
head 5.96119 -0.24588 3.71719
rclavicle -3.04141e-014 -4.05521e-014
rhumerus -20.725 48.7052 -93.6487
rradius 69.9825
rwrist -3.48978
rhand -33.161 14.1281
rfingers 7.12502
rthumb -6.36967 -15.7561
lclavicle -3.04141e-014 -4.05521e-014
lhumerus -28.9923 -33.9694 107.497
lradius 77.0908
lwrist 16.7151
lhand -31.7197 34.4334
lfingers 7.12502
lthumb -4.97813 64.3549
rfemur -22.6126 -0.357073 17.902
rtibia 46.0741
rfoot -21.9533 -11.5819
rtoes -1.59815
lfemur -10.2444 0.539038 -14.7779
ltibia 44.835
lfoot -15.9431 -7.10758
ltoes -13.1871
417
root 0.645262 17.2918 -2.37578 5.09549 -22.3615 -0.800639
lowerback 8.63696 -0.182302 1.91083
upperback 0.0584401 0.0932108 3.21364
thorax -4.79223 0.0329234 2.25992
lowerneck -17.8399 -1.17859 -6.74061
upperneck 9.89419 -1.15473 8.414
head 5.99458 -0.142951 3.68421
rclavicle 1.43125e-014 3.57812e-014
rhumerus -20.8004 48.2141 -93.6935
rradius 69.8159
rwrist -4.78657
rhand -33.3245 14.0172
rfingers 7.12502
rthumb -6.52746 -15.8623
lclavicle 1.43125e-014 3.57812e-014
lhumerus -28.6874 -34.3923 107.653
lradius 76.4607
lwrist 16.443
lhand -31.7583 34.529
lfingers 7.12502
lthumb -5.01532 64.4496
rfemur -23.0833 -0.374934 17.6554
rtibia 46.2451
rfoot -21.8457 -11.2999
rtoes -1.48372
lfemur -9.27888 0.160607 -15.2094
ltibia 43.3815
lfoot -16.0825 -7.13299
ltoes -14.1717
418
root 0.701175 17.2833 -2.42543 5.13228 -22.618 -0.704825
lowerback 8.45463 -0.262373 1.72795
upperback -0.0292746 -0.0355547 3.20128
thorax -4.77779 -0.0262614 2.36539
lowerneck -17.821 -1.00966 -6.6471
upperneck 10.0502 -0.943792 8.31049
head 6.02268 -0.0449953 3.65849
rclavicle 5.06901e-014 4.6118e-014
rhumerus -20.8441 47.7146 -93.7164
rradius 69.6353
rwrist -6.22604
rhand -33.4852 13.9368
rfingers 7.12502
rthumb -6.6826 -15.9377
lclavicle 5.06901e-014 4.6118e-014
lhumerus -28.3773 -34.8038 107.812
lradius 75.8321
lwrist 16.2255
lhand -31.6182 34.592
lfingers 7.12502
lthumb -4.88006 64.5158
rfemur -23.5656 -0.399923 17.4175
rtibia 46.426
rfoot -21.7329 -11.0242
rtoes -1.37395
lfemur -8.36327 -0.211182 -15.6466
ltibia 41.8798
lfoot -16.3336 -6.91023
ltoes -15.264
419
root 0.758693 17.2742 -2.4769 5.17598 -22.8515 -0.61939
lowerback 8.28654 -0.339003 1.54266
upperback -0.111579 -0.158858 3.19552
thorax -4.76504 -0.0825928 2.47812
lowerneck -17.8126 -0.851841 -6.56991
upperneck 10.2013 -0.747107 8.23649
head 6.0528 0.0479064 3.64368
rclavicle 1.70955e-014 7.95139e-015
rhumerus -20.8595 47.2076 -93.7235
rradius 69.4327
rwrist -7.71809
rhand -33.6685 13.8797
rfingers 7.12502
rthumb -6.85958 -15.9892
lclavicle 1.70955e-014 7.95139e-015
lhumerus -28.0664 -35.2005 107.97
lradius 75.2266
lwrist 16.1369
lhand -31.2788 34.5409
lfingers 7.12502
lthumb -4.55234 64.472
rfemur -24.0602 -0.437531 17.1923
rtibia 46.6104
rfoot -21.6127 -10.7596
rtoes -1.26078
lfemur -7.52328 -0.564124 -16.0797
ltibia 40.3537
lfoot -16.7337 -6.43096
ltoes -16.2914
420
root 0.817947 17.2644 -2.52961 5.2241 -23.0787 -0.553701
lowerback 8.13277 -0.405221 1.36635
upperback -0.181239 -0.266712 3.19539
thorax -4.74688 -0.131463 2.58942
lowerneck -17.8286 -0.707218 -6.50948
upperneck 10.3482 -0.567688 8.19803
head 6.08749 0.135046 3.6417
rclavicle -2.08724e-014 -3.97569e-015
rhumerus -20.8181 46.6729 -93.7039
rradius 69.1864
rwrist -9.10567
rhand -33.8689 13.8474
rfingers 7.12502
rthumb -7.05298 -16.0151
lclavicle -2.08724e-014 -3.97569e-015
lhumerus -27.753 -35.5887 108.125
lradius 74.6775
lwrist 16.2888
lhand -30.7766 34.3202
lfingers 7.12502
lthumb -4.06739 64.2611
rfemur -24.558 -0.479597 16.9869
rtibia 46.791
rfoot -21.4858 -10.5003
rtoes -1.13422
lfemur -6.76168 -0.874485 -16.4988
ltibia 38.8349
lfoot -17.2721 -5.69188
ltoes -17.0601
421
root 0.878737 17.2542 -2.58428 5.27439 -23.2874 -0.5003
lowerback 7.99762 -0.466748 1.1909
upperback -0.239981 -0.36749 3.19779
thorax -4.72737 -0.176854 2.70184
lowerneck -17.8632 -0.572895 -6.4566
upperneck 10.4915 -0.403683 8.19038
head 6.1257 0.217227 3.64969
rclavicle 2.82274e-014 -5.56597e-015
rhumerus -20.7306 46.0922 -93.6665
rradius 68.903
rwrist -10.2619
rhand -34.0703 13.8412
rfingers 7.12502
rthumb -7.2474 -16.0146
lclavicle 2.82274e-014 -5.56597e-015
lhumerus -27.4442 -35.9674 108.275
lradius 74.2079
lwrist 16.7572
lhand -30.1582 33.9095
lfingers 7.12502
lthumb -3.47024 63.861
rfemur -25.0549 -0.54018 16.7966
rtibia 46.962
rfoot -21.3546 -10.2421
rtoes -0.971495
lfemur -6.09523 -1.13121 -16.9017
ltibia 37.3629
lfoot -17.8804 -4.74822
ltoes -17.4323
